<svg width="39" height="40" viewBox="0 0 39 40" fill="none" xmlns="http://www.w3.org/2000/svg">
<path d="M5.32812 38.4229V31.3372H12.4138" stroke="#007788" stroke-linecap="round" stroke-linejoin="round"/>
<path d="M37.6105 16.6143C38.3623 20.6256 37.7611 24.773 35.9012 28.4057C34.0413 32.0384 31.028 34.9508 27.3341 36.686C23.6401 38.4212 19.4747 38.8808 15.4913 37.9929C11.5079 37.105 7.93204 34.9197 5.32477 31.78M1.38762 23.3857C0.63582 19.3744 1.23703 15.227 3.09693 11.5943C4.95682 7.96164 7.97014 5.04921 11.664 3.31405C15.358 1.5789 19.5234 1.11921 23.5068 2.00712C27.4902 2.89504 31.0661 5.0803 33.6733 8.22002" stroke="#007788" stroke-width="2" stroke-linecap="round" stroke-linejoin="round"/>
<g clip-path="url(#clip0_76_19592)">
<path fill-rule="evenodd" clip-rule="evenodd" d="M21.1637 8.33336C21.4287 8.33307 21.687 8.41703 21.9012 8.57311C22.1154 8.72919 22.2744 8.94932 22.3554 9.20169L27.832 26.3167L29.9754 19.62C30.0559 19.3676 30.2146 19.1473 30.4285 18.9909C30.6424 18.8346 30.9004 18.7502 31.1654 18.75H33.2487C33.5802 18.75 33.8982 18.8817 34.1326 19.1161C34.367 19.3506 34.4987 19.6685 34.4987 20C34.4987 20.3315 34.367 20.6495 34.1326 20.8839C33.8982 21.1183 33.5802 21.25 33.2487 21.25H32.077L29.022 30.7984C28.941 31.0503 28.7822 31.27 28.5683 31.4259C28.3545 31.5818 28.0967 31.6657 27.832 31.6657C27.5674 31.6657 27.3096 31.5818 27.0957 31.4259C26.8819 31.27 26.723 31.0503 26.642 30.7984L21.1737 13.71L17.357 25.7934C17.2783 26.0424 17.1235 26.2604 16.9145 26.417C16.7055 26.5735 16.4527 26.6607 16.1916 26.6662C15.9305 26.6717 15.6743 26.5953 15.4588 26.4477C15.2434 26.3001 15.0796 26.0888 14.9904 25.8434L12.8837 20.05L12.767 20.3967C12.6842 20.6455 12.5251 20.8619 12.3125 21.0154C12.0998 21.1688 11.8443 21.2515 11.582 21.2517H9.08203C8.75051 21.2517 8.43257 21.12 8.19815 20.8856C7.96373 20.6512 7.83203 20.3332 7.83203 20.0017C7.83203 19.6702 7.96373 19.3522 8.19815 19.1178C8.43257 18.8834 8.75051 18.7517 9.08203 18.7517H10.682L11.6454 15.8567C11.727 15.6101 11.8835 15.3951 12.093 15.2415C12.3025 15.088 12.5546 15.0035 12.8143 14.9998C13.0741 14.9961 13.3285 15.0735 13.5422 15.2211C13.756 15.3687 13.9184 15.5792 14.007 15.8234L16.082 21.5317L19.9737 9.20836C20.0534 8.95501 20.2117 8.73362 20.4256 8.57629C20.6396 8.41897 20.8981 8.33387 21.1637 8.33336Z" fill="#007788"/>
</g>
<defs>
<clipPath id="clip0_76_19592">
<rect width="26.6667" height="26.6667" fill="white" transform="translate(7.83203 6.66669)"/>
</clipPath>
</defs>
</svg>
