<svg width="40" height="40" viewBox="0 0 40 40" fill="none" xmlns="http://www.w3.org/2000/svg">
<g id="vuesax/outline/close-circle">
<g id="close-circle">
<g id="Vector">
<path d="M19.9997 37.9163C10.1163 37.9163 2.08301 29.883 2.08301 19.9997C2.08301 10.1163 10.1163 2.08301 19.9997 2.08301C29.883 2.08301 37.9163 10.1163 37.9163 19.9997C37.9163 29.883 29.883 37.9163 19.9997 37.9163ZM19.9997 4.58301C11.4997 4.58301 4.58301 11.4997 4.58301 19.9997C4.58301 28.4997 11.4997 35.4163 19.9997 35.4163C28.4997 35.4163 35.4163 28.4997 35.4163 19.9997C35.4163 11.4997 28.4997 4.58301 19.9997 4.58301Z" fill="#F1F3F6" fill-opacity="0.5"/>
<path d="M19.9997 37.4163C10.3925 37.4163 2.58301 29.6069 2.58301 19.9997C2.58301 10.3925 10.3925 2.58301 19.9997 2.58301C29.6069 2.58301 37.4163 10.3925 37.4163 19.9997C37.4163 29.6069 29.6069 37.4163 19.9997 37.4163ZM19.9997 4.08301C11.2235 4.08301 4.08301 11.2235 4.08301 19.9997C4.08301 28.7758 11.2235 35.9163 19.9997 35.9163C28.7758 35.9163 35.9163 28.7758 35.9163 19.9997C35.9163 11.2235 28.7758 4.08301 19.9997 4.08301Z" stroke="#F1F3F6" stroke-opacity="0.5"/>
</g>
<g id="Vector_2">
<path d="M15.2829 25.9663C14.9663 25.9663 14.6496 25.8496 14.3996 25.5996C13.9163 25.1163 13.9163 24.3163 14.3996 23.8329L23.8329 14.3996C24.3163 13.9163 25.1163 13.9163 25.5996 14.3996C26.0829 14.8829 26.0829 15.6829 25.5996 16.1663L16.1663 25.5996C15.9329 25.8496 15.5996 25.9663 15.2829 25.9663Z" fill="#F1F3F6" fill-opacity="0.5"/>
<path d="M15.8127 25.2461L15.8066 25.2521L15.8007 25.2584C15.6772 25.3909 15.485 25.4663 15.2829 25.4663C15.0917 25.4663 14.9045 25.3973 14.7532 25.2461C14.4651 24.958 14.4651 24.4746 14.7532 24.1865L24.1865 14.7532C24.4746 14.4651 24.958 14.4651 25.2461 14.7532C25.5341 15.0412 25.5341 15.5247 25.2461 15.8127L15.8127 25.2461Z" stroke="#F1F3F6" stroke-opacity="0.5"/>
</g>
<g id="Vector_3">
<path d="M24.7163 25.9663C24.3996 25.9663 24.0829 25.8496 23.8329 25.5996L14.3996 16.1663C13.9163 15.6829 13.9163 14.8829 14.3996 14.3996C14.8829 13.9163 15.6829 13.9163 16.1663 14.3996L25.5996 23.8329C26.0829 24.3163 26.0829 25.1163 25.5996 25.5996C25.3496 25.8496 25.0329 25.9663 24.7163 25.9663Z" fill="#F1F3F6" fill-opacity="0.5"/>
<path d="M24.7163 25.4663C24.5251 25.4663 24.3378 25.3973 24.1865 25.2461L14.7532 15.8127C14.4651 15.5247 14.4651 15.0412 14.7532 14.7532C15.0412 14.4651 15.5247 14.4651 15.8127 14.7532L25.2461 24.1865C25.5341 24.4746 25.5341 24.958 25.2461 25.2461C25.0948 25.3973 24.9075 25.4663 24.7163 25.4663Z" stroke="#F1F3F6" stroke-opacity="0.5"/>
</g>
</g>
</g>
</svg>
